<?xml version="1.0" encoding="us-ascii" standalone="no"?><svg xmlns="http://www.w3.org/2000/svg" xmlns:xlink="http://www.w3.org/1999/xlink" contentStyleType="text/css" height="1084px" preserveAspectRatio="none" style="width:737px;height:1084px;background:#FFFFFF;" version="1.1" viewBox="0 0 737 1084" width="737px" zoomAndPan="magnify"><defs/><g><!--cluster voltscript-collections--><g id="cluster_voltscript-collections"><path d="M242,652.25 L399,652.25 A3.75,3.75 0 0 1 401.5,654.75 L408.5,674.7383 L450,674.7383 A2.5,2.5 0 0 1 452.5,677.2383 L452.5,736.75 A2.5,2.5 0 0 1 450,739.25 L242,739.25 A2.5,2.5 0 0 1 239.5,736.75 L239.5,654.75 A2.5,2.5 0 0 1 242,652.25 " fill="none" style="stroke:#800000;stroke-width:2.0;"/><line style="stroke:#800000;stroke-width:2.0;" x1="239.5" x2="408.5" y1="674.7383" y2="674.7383"/><text fill="#000000" font-family="sans-serif" font-size="14" font-weight="bold" lengthAdjust="spacing" textLength="156" x="243.5" y="667.7852">voltscript-collections</text></g><!--cluster voltscript-json-converter--><g id="cluster_voltscript-json-converter"><path d="M231.5,130.25 L417.5,130.25 A3.75,3.75 0 0 1 420,132.75 L427,152.7383 L460.5,152.7383 A2.5,2.5 0 0 1 463,155.2383 L463,214.75 A2.5,2.5 0 0 1 460.5,217.25 L231.5,217.25 A2.5,2.5 0 0 1 229,214.75 L229,132.75 A2.5,2.5 0 0 1 231.5,130.25 " fill="none" style="stroke:#800000;stroke-width:2.0;"/><line style="stroke:#800000;stroke-width:2.0;" x1="229" x2="427" y1="152.7383" y2="152.7383"/><text fill="#000000" font-family="sans-serif" font-size="14" font-weight="bold" lengthAdjust="spacing" textLength="185" x="233" y="145.7852">voltscript-json-converter</text></g><!--cluster voltscript-testing--><g id="cluster_voltscript-testing"><path d="M254.5,241.25 L384.5,241.25 A3.75,3.75 0 0 1 387,243.75 L394,263.7383 L437.5,263.7383 A2.5,2.5 0 0 1 440,266.2383 L440,325.75 A2.5,2.5 0 0 1 437.5,328.25 L254.5,328.25 A2.5,2.5 0 0 1 252,325.75 L252,243.75 A2.5,2.5 0 0 1 254.5,241.25 " fill="none" style="stroke:#800000;stroke-width:2.0;"/><line style="stroke:#800000;stroke-width:2.0;" x1="252" x2="394" y1="263.7383" y2="263.7383"/><text fill="#000000" font-family="sans-serif" font-size="14" font-weight="bold" lengthAdjust="spacing" textLength="129" x="256" y="256.7852">voltscript-testing</text></g><!--cluster voltscript-console-colors--><g id="cluster_voltscript-console-colors"><path d="M229.5,352.25 L416.5,352.25 A3.75,3.75 0 0 1 419,354.75 L426,374.7383 L462.5,374.7383 A2.5,2.5 0 0 1 465,377.2383 L465,436.75 A2.5,2.5 0 0 1 462.5,439.25 L229.5,439.25 A2.5,2.5 0 0 1 227,436.75 L227,354.75 A2.5,2.5 0 0 1 229.5,352.25 " fill="none" style="stroke:#800000;stroke-width:2.0;"/><line style="stroke:#800000;stroke-width:2.0;" x1="227" x2="426" y1="374.7383" y2="374.7383"/><text fill="#000000" font-family="sans-serif" font-size="14" font-weight="bold" lengthAdjust="spacing" textLength="186" x="231" y="367.7852">voltscript-console-colors</text></g><!--cluster voltscript-voltmx-middleware--><g id="cluster_voltscript-voltmx-middleware"><path d="M495.5,688.25 L717.5,688.25 A3.75,3.75 0 0 1 720,690.75 L727,710.7383 L727.5,710.7383 A2.5,2.5 0 0 1 730,713.2383 L730,772.75 A2.5,2.5 0 0 1 727.5,775.25 L495.5,775.25 A2.5,2.5 0 0 1 493,772.75 L493,690.75 A2.5,2.5 0 0 1 495.5,688.25 " fill="none" style="stroke:#800000;stroke-width:2.0;"/><line style="stroke:#800000;stroke-width:2.0;" x1="493" x2="727" y1="710.7383" y2="710.7383"/><text fill="#000000" font-family="sans-serif" font-size="14" font-weight="bold" lengthAdjust="spacing" textLength="221" x="497" y="703.7852">voltscript-voltmx-middleware</text></g><!--cluster voltscript-logging--><g id="cluster_voltscript-logging"><path d="M8.5,714.25 L142.5,714.25 A3.75,3.75 0 0 1 145,716.75 L152,736.7383 L196.5,736.7383 A2.5,2.5 0 0 1 199,739.2383 L199,798.75 A2.5,2.5 0 0 1 196.5,801.25 L8.5,801.25 A2.5,2.5 0 0 1 6,798.75 L6,716.75 A2.5,2.5 0 0 1 8.5,714.25 " fill="none" style="stroke:#800000;stroke-width:2.0;"/><line style="stroke:#800000;stroke-width:2.0;" x1="6" x2="152" y1="736.7383" y2="736.7383"/><text fill="#000000" font-family="sans-serif" font-size="14" font-weight="bold" lengthAdjust="spacing" textLength="133" x="10" y="729.7852">voltscript-logging</text></g><g id="elem_VoltScriptCollections"><rect fill="#FF7F50" height="36.4883" style="stroke:#181818;stroke-width:0.5;" width="181" x="255.5" y="687"/><text fill="#000000" font-family="sans-serif" font-size="14" lengthAdjust="spacing" textLength="167" x="262.5" y="702.5352">VoltScriptCollections.vss</text><line style="stroke:#181818;stroke-width:0.5;" x1="256.5" x2="435.5" y1="707.4883" y2="707.4883"/></g><g id="elem_VoltScriptJsonConverter"><rect fill="#FFD700" height="36.4883" style="stroke:#181818;stroke-width:0.5;" width="202" x="245" y="165"/><text fill="#000000" font-family="sans-serif" font-size="14" lengthAdjust="spacing" textLength="188" x="252" y="180.5352">VoltScriptJsonConverter.vss</text><line style="stroke:#181818;stroke-width:0.5;" x1="246" x2="446" y1="185.4883" y2="185.4883"/></g><g id="elem_VoltScriptTesting"><rect fill="#A9A9A9" height="36.4883" style="stroke:#181818;stroke-width:0.5;" width="156" x="268" y="276"/><text fill="#000000" font-family="sans-serif" font-size="14" lengthAdjust="spacing" textLength="142" x="275" y="291.5352">VoltScriptTesting.vss</text><line style="stroke:#181818;stroke-width:0.5;" x1="269" x2="423" y1="296.4883" y2="296.4883"/></g><g id="elem_VoltScriptConsoleColors"><rect fill="#DEB887" height="36.4883" style="stroke:#181818;stroke-width:0.5;" width="206" x="243" y="387"/><text fill="#000000" font-family="sans-serif" font-size="14" lengthAdjust="spacing" textLength="192" x="250" y="402.5352">VoltScriptConsoleColors.vss</text><line style="stroke:#181818;stroke-width:0.5;" x1="244" x2="448" y1="407.4883" y2="407.4883"/></g><g id="elem_VoltMXObjects"><rect fill="#BA55D3" height="36.4883" style="stroke:#181818;stroke-width:0.5;" width="138" x="542" y="723"/><text fill="#000000" font-family="sans-serif" font-size="14" lengthAdjust="spacing" textLength="124" x="549" y="738.5352">VoltMXObjects.vss</text><line style="stroke:#181818;stroke-width:0.5;" x1="543" x2="679" y1="743.4883" y2="743.4883"/></g><g id="elem_VoltScriptLogging"><rect fill="#3CB371" height="36.4883" style="stroke:#181818;stroke-width:0.5;" width="161" x="22" y="749"/><text fill="#000000" font-family="sans-serif" font-size="14" lengthAdjust="spacing" textLength="147" x="29" y="764.5352">VoltScriptLogging.vss</text><line style="stroke:#181818;stroke-width:0.5;" x1="23" x2="182" y1="769.4883" y2="769.4883"/></g><g id="elem_archipelago"><rect fill="#6495ED" height="77.9531" style="stroke:#181818;stroke-width:0.5;" width="97" x="562.5" y="366.27"/><text fill="#000000" font-family="sans-serif" font-size="14" lengthAdjust="spacing" textLength="81" x="570.5" y="381.8052">archipelago</text><line style="stroke:#181818;stroke-width:0.5;" x1="563.5" x2="658.5" y1="386.7583" y2="386.7583"/><text fill="#000000" font-family="sans-serif" font-size="14" lengthAdjust="spacing" textLength="38" x="568.5" y="404.2934">setup</text><text fill="#000000" font-family="sans-serif" font-size="14" lengthAdjust="spacing" textLength="75" x="568.5" y="420.7817">installDeps</text><text fill="#000000" font-family="sans-serif" font-size="14" lengthAdjust="spacing" textLength="85" x="568.5" y="437.27">foundryPack</text></g><g id="elem_JsonVSE"><rect fill="#90EE90" height="36.4883" style="stroke:#181818;stroke-width:0.5;" width="68" x="68.5" y="662"/><text fill="#000000" font-family="sans-serif" font-size="14" lengthAdjust="spacing" textLength="54" x="75.5" y="677.5352">JsonVSE</text><line style="stroke:#181818;stroke-width:0.5;" x1="69.5" x2="135.5" y1="682.4883" y2="682.4883"/></g><g id="elem_StreamVSE"><rect fill="#90EE90" height="36.4883" style="stroke:#181818;stroke-width:0.5;" width="87" x="302.5" y="458"/><text fill="#000000" font-family="sans-serif" font-size="14" lengthAdjust="spacing" textLength="73" x="309.5" y="473.5352">StreamVSE</text><line style="stroke:#181818;stroke-width:0.5;" x1="303.5" x2="388.5" y1="478.4883" y2="478.4883"/></g><g id="elem_ZipVSE"><rect fill="#90EE90" height="36.4883" style="stroke:#181818;stroke-width:0.5;" width="60" x="316" y="529"/><text fill="#000000" font-family="sans-serif" font-size="14" lengthAdjust="spacing" textLength="46" x="323" y="544.5352">ZipVSE</text><line style="stroke:#181818;stroke-width:0.5;" x1="317" x2="375" y1="549.4883" y2="549.4883"/></g><g id="elem_OSUtilsVSE"><rect fill="#90EE90" height="36.4883" style="stroke:#181818;stroke-width:0.5;" width="88" x="302" y="7"/><text fill="#000000" font-family="sans-serif" font-size="14" lengthAdjust="spacing" textLength="74" x="309" y="22.5352">OSUtilsVSE</text><line style="stroke:#181818;stroke-width:0.5;" x1="303" x2="389" y1="27.4883" y2="27.4883"/></g><g id="elem_WebVSE"><rect fill="#90EE90" height="36.4883" style="stroke:#181818;stroke-width:0.5;" width="68" x="312" y="78"/><text fill="#000000" font-family="sans-serif" font-size="14" lengthAdjust="spacing" textLength="54" x="319" y="93.5352">WebVSE</text><line style="stroke:#181818;stroke-width:0.5;" x1="313" x2="379" y1="98.4883" y2="98.4883"/></g><g id="elem_ZuluVSE"><rect fill="#90EE90" height="36.4883" style="stroke:#181818;stroke-width:0.5;" width="69" x="68" y="900"/><text fill="#000000" font-family="sans-serif" font-size="14" lengthAdjust="spacing" textLength="55" x="75" y="915.5352">ZuluVSE</text><line style="stroke:#181818;stroke-width:0.5;" x1="69" x2="136" y1="920.4883" y2="920.4883"/></g><g id="elem_HashVSE"><rect fill="#90EE90" height="36.4883" style="stroke:#181818;stroke-width:0.5;" width="73" x="66" y="971"/><text fill="#000000" font-family="sans-serif" font-size="14" lengthAdjust="spacing" textLength="59" x="73" y="986.5352">HashVSE</text><line style="stroke:#181818;stroke-width:0.5;" x1="67" x2="138" y1="991.4883" y2="991.4883"/></g><g id="elem_DrapiVSE"><rect fill="#90EE90" height="36.4883" style="stroke:#181818;stroke-width:0.5;" width="76" x="64.5" y="1042"/><text fill="#000000" font-family="sans-serif" font-size="14" lengthAdjust="spacing" textLength="62" x="71.5" y="1057.5352">DrapiVSE</text><line style="stroke:#181818;stroke-width:0.5;" x1="65.5" x2="139.5" y1="1062.4883" y2="1062.4883"/></g><g id="elem_CouchVSE"><rect fill="#90EE90" height="36.4883" style="stroke:#181818;stroke-width:0.5;" width="83" x="304.5" y="900"/><text fill="#000000" font-family="sans-serif" font-size="14" lengthAdjust="spacing" textLength="69" x="311.5" y="915.5352">CouchVSE</text><line style="stroke:#181818;stroke-width:0.5;" x1="305.5" x2="386.5" y1="920.4883" y2="920.4883"/></g><g id="elem_XMLVSE"><rect fill="#90EE90" height="36.4883" style="stroke:#181818;stroke-width:0.5;" width="67" x="312.5" y="971"/><text fill="#000000" font-family="sans-serif" font-size="14" lengthAdjust="spacing" textLength="53" x="319.5" y="986.5352">XMLVSE</text><line style="stroke:#181818;stroke-width:0.5;" x1="313.5" x2="378.5" y1="991.4883" y2="991.4883"/></g><g id="elem_ContextVSE"><rect fill="#90EE90" height="36.4883" style="stroke:#181818;stroke-width:0.5;" width="94" x="299" y="600"/><text fill="#000000" font-family="sans-serif" font-size="14" lengthAdjust="spacing" textLength="80" x="306" y="615.5352">ContextVSE</text><line style="stroke:#181818;stroke-width:0.5;" x1="300" x2="392" y1="620.4883" y2="620.4883"/></g><!--reverse link VoltScriptCollections to archipelago--><g id="link_VoltScriptCollections_archipelago"><path codeLine="40" d="M433.9656,679.9592 C453.5956,672.2892 457.12,668.35 473,654.25 C538.48,596.09 579.02,498.87 597.73,444.72 " fill="none" id="VoltScriptCollections-backto-archipelago" style="stroke:#6495ED;stroke-width:1.0;stroke-dasharray:7.0,7.0;"/><polygon fill="none" points="417.2,686.51,436.1492,685.5477,431.782,674.3706,417.2,686.51" style="stroke:#6495ED;stroke-width:1.0;"/></g><!--reverse link VoltScriptJsonConverter to archipelago--><g id="link_VoltScriptJsonConverter_archipelago"><path codeLine="41" d="M398.9464,210.6181 C425.0864,224.9381 444.82,237.4 473,260.25 C512.41,292.19 551.58,335.06 577.88,365.89 " fill="none" id="VoltScriptJsonConverter-backto-archipelago" style="stroke:#6495ED;stroke-width:1.0;stroke-dasharray:7.0,7.0;"/><polygon fill="none" points="383.16,201.97,396.0637,215.8802,401.8291,205.356,383.16,201.97" style="stroke:#6495ED;stroke-width:1.0;"/></g><!--reverse link VoltScriptTesting to archipelago--><g id="link_VoltScriptTesting_archipelago"><path codeLine="42" d="M407.9032,319.9497 C455.3332,339.9697 513.72,364.61 562.38,385.15 " fill="none" id="VoltScriptTesting-backto-archipelago" style="stroke:#6495ED;stroke-width:1.0;stroke-dasharray:7.0,7.0;"/><polygon fill="none" points="391.32,312.95,405.57,325.4775,410.2365,314.422,391.32,312.95" style="stroke:#6495ED;stroke-width:1.0;"/></g><!--reverse link VoltScriptConsoleColors to archipelago--><g id="link_VoltScriptConsoleColors_archipelago"><path codeLine="43" d="M467.44,405.25 C506.23,405.25 530.58,405.25 562.05,405.25 " fill="none" id="VoltScriptConsoleColors-backto-archipelago" style="stroke:#6495ED;stroke-width:1.0;stroke-dasharray:7.0,7.0;"/><polygon fill="none" points="449.44,405.25,467.44,411.25,467.44,399.25,449.44,405.25" style="stroke:#6495ED;stroke-width:1.0;"/></g><!--reverse link ContextVSE to archipelago--><g id="link_ContextVSE_archipelago"><path codeLine="44" d="M411.1088,609.3071 C436.3188,604.5571 449.37,599.17 473,583.25 C525.72,547.73 566.84,485.28 589.77,444.59 " fill="none" id="ContextVSE-backto-archipelago" style="stroke:#6495ED;stroke-width:1.0;stroke-dasharray:7.0,7.0;"/><polygon fill="none" points="393.42,612.64,412.2197,615.2034,409.9978,603.4109,393.42,612.64" style="stroke:#6495ED;stroke-width:1.0;"/></g><!--reverse link OSUtilsVSE to archipelago--><g id="link_OSUtilsVSE_archipelago"><path codeLine="45" d="M408.286,30.134 C434.996,33.764 450.45,39.99 473,60.25 C564.69,142.61 595.84,294.46 605.74,366.01 " fill="none" id="OSUtilsVSE-backto-archipelago" style="stroke:#6495ED;stroke-width:1.0;stroke-dasharray:7.0,7.0;"/><polygon fill="none" points="390.45,27.71,407.478,36.0793,409.094,24.1886,390.45,27.71" style="stroke:#6495ED;stroke-width:1.0;"/></g><!--reverse link StreamVSE to archipelago--><g id="link_StreamVSE_archipelago"><path codeLine="46" d="M407.2181,459.9893 C454.5281,447.2193 513.1,431.4 562.28,418.13 " fill="none" id="StreamVSE-backto-archipelago" style="stroke:#6495ED;stroke-width:1.0;stroke-dasharray:7.0,7.0;"/><polygon fill="none" points="389.84,464.68,408.7816,465.782,405.6545,454.1966,389.84,464.68" style="stroke:#6495ED;stroke-width:1.0;"/></g><!--reverse link WebVSE to archipelago--><g id="link_WebVSE_archipelago"><path codeLine="47" d="M397.7408,108.4042 C425.3108,115.9542 446.68,125.27 473,149.25 C539.71,210.01 580.11,310.96 598.38,366.19 " fill="none" id="WebVSE-backto-archipelago" style="stroke:#6495ED;stroke-width:1.0;stroke-dasharray:7.0,7.0;"/><polygon fill="none" points="380.38,103.65,396.1561,114.1912,399.3255,102.6173,380.38,103.65" style="stroke:#6495ED;stroke-width:1.0;"/></g><!--reverse link ZipVSE to archipelago--><g id="link_ZipVSE_archipelago"><path codeLine="48" d="M394.1363,539.0517 C420.4563,533.9917 441.88,527.94 473,512.25 C508.03,494.58 542.81,467.27 568.56,444.66 " fill="none" id="ZipVSE-backto-archipelago" style="stroke:#6495ED;stroke-width:1.0;stroke-dasharray:7.0,7.0;"/><polygon fill="none" points="376.46,542.45,395.2691,544.9438,393.0036,533.1596,376.46,542.45" style="stroke:#6495ED;stroke-width:1.0;"/></g><!--reverse link JsonVSE to VoltScriptCollections--><g id="link_JsonVSE_VoltScriptCollections"><path codeLine="49" d="M154.7346,685.551 C185.2046,688.701 213.78,691.66 255.1,695.94 " fill="none" id="JsonVSE-backto-VoltScriptCollections" style="stroke:#FF7F50;stroke-width:1.0;"/><polygon fill="none" points="136.83,683.7,154.1176,691.5192,155.3516,679.5828,136.83,683.7" style="stroke:#FF7F50;stroke-width:1.0;"/></g><!--reverse link JsonVSE to VoltScriptJsonConverter--><g id="link_JsonVSE_VoltScriptJsonConverter"><path codeLine="50" d="M104.5421,643.8215 C106.7821,581.0715 120.98,390.44 219,260.25 C238.81,233.93 270.48,214.63 297.11,201.94 " fill="none" id="JsonVSE-backto-VoltScriptJsonConverter" style="stroke:#DAA520;stroke-width:1.0;"/><polygon fill="none" points="103.9,661.81,110.5383,644.0355,98.546,643.6074,103.9,661.81" style="stroke:#DAA520;stroke-width:1.0;"/></g><!--reverse link VoltScriptCollections to VoltMXObjects--><g id="link_VoltScriptCollections_VoltMXObjects"><path codeLine="51" d="M454.6034,719.9731 C488.9834,724.6831 509.77,727.53 541.8,731.91 " fill="none" id="VoltScriptCollections-backto-VoltMXObjects" style="stroke:#9932CC;stroke-width:1.0;"/><polygon fill="none" points="436.77,717.53,453.789,725.9176,455.4178,714.0287,436.77,717.53" style="stroke:#9932CC;stroke-width:1.0;"/></g><!--reverse link JsonVSE to VoltMXObjects--><g id="link_JsonVSE_VoltMXObjects"><path codeLine="52" d="M152.7105,705.4662 C186.6405,722.8462 218.44,739.11 219,739.25 C329.48,766.13 462.78,758.69 541.73,750.33 " fill="none" id="JsonVSE-backto-VoltMXObjects" style="stroke:#9932CC;stroke-width:1.0;"/><polygon fill="none" points="136.69,697.26,149.9751,710.8064,155.446,700.126,136.69,697.26" style="stroke:#9932CC;stroke-width:1.0;"/></g><!--reverse link ContextVSE to VoltMXObjects--><g id="link_ContextVSE_VoltMXObjects"><path codeLine="53" d="M410.0944,643.6487 C434.0444,653.4687 446.96,659.14 473,671.25 C508.24,687.63 547.68,708 575.16,722.54 " fill="none" id="ContextVSE-backto-VoltMXObjects" style="stroke:#9932CC;stroke-width:1.0;"/><polygon fill="none" points="393.44,636.82,407.8182,649.2001,412.3706,638.0972,393.44,636.82" style="stroke:#9932CC;stroke-width:1.0;"/></g><!--reverse link VoltScriptLogging to VoltScriptJsonConverter--><g id="link_VoltScriptLogging_VoltScriptJsonConverter"><path codeLine="54" d="M184.1855,740.5921 C199.4555,733.0421 197.82,730.58 207,716.25 C234.34,673.56 193.63,304.12 219,260.25 C234.78,232.95 264.49,214.11 291.09,201.9 " fill="none" id="VoltScriptLogging-backto-VoltScriptJsonConverter" style="stroke:#DAA520;stroke-width:1.0;"/><polygon fill="none" points="168.05,748.57,186.8448,745.9706,181.5262,735.2136,168.05,748.57" style="stroke:#DAA520;stroke-width:1.0;"/></g><!--reverse link VoltScriptLogging to VoltScriptCollections--><g id="link_VoltScriptLogging_VoltScriptCollections"><path codeLine="55" d="M193.7242,744.0825 C224.1342,736.2725 241.96,731.7 272.36,723.89 " fill="none" id="VoltScriptLogging-backto-VoltScriptCollections" style="stroke:#FF7F50;stroke-width:1.0;"/><polygon fill="none" points="176.29,748.56,195.2167,749.8939,192.2317,738.2711,176.29,748.56" style="stroke:#FF7F50;stroke-width:1.0;"/></g><!--reverse link VoltScriptLogging to VoltMXObjects--><g id="link_VoltScriptLogging_VoltMXObjects"><path codeLine="56" d="M170.7602,791.5394 C190.7802,798.0794 197.13,799.01 219,802.25 C330.67,818.79 362.58,825.72 473,802.25 C511.07,794.15 551.4,774.71 578.36,759.93 " fill="none" id="VoltScriptLogging-backto-VoltMXObjects" style="stroke:#9932CC;stroke-width:1.0;"/><polygon fill="none" points="153.65,785.95,168.897,797.2428,172.6233,785.836,153.65,785.95" style="stroke:#9932CC;stroke-width:1.0;"/></g><!--SRC=[bLHBR-8m4BxdLuoQCnpst1EXOhK2KJLzgJSt6OABuud63YtQxdzldWkqTY9kjhzlvXlFI-76WYLWcMqjf98niP9qO7PI5u953eL8TY93-1i0p8XJv8WKCQm4KqNi7- -tCjbfD0P-1Vy2Udsh787WP2iBL28Z22DYlL7qZZnJPUiFmA0jY-OajR52gJaMfhblgDGf7suh-SfX7yMUb3K9oy9E4bAgZTPqpZhLgyUA53UawCYPxesv0c70YJRX2ULMUZEaApczHxR8Nh4_5ItgMGwvCnp21QdKhMVHMAaphz1zYpiaEWJ2kU3TWiN1bpfjI66TGkAXx3Mqfjxk_9tW4CvALeSd8i-lwcF-CSbbcYfy5umEtTNpkhcTg_r_XN25gIppTTrN7Xb5MJQKl6MBExxJ8Rr8Z6B1YFhOpdK17-CR29VrjBHW1yMMKUGUy4KM7cGTFrYfZ0TzmbUVnrAL7kYtC5iFD6THI0yMKPdux9vNIw-LjlXXlwFk4Rl-d4w7LaBW6vKB3Fi1kC3al8j73K- -FCezAUyezzX1ezIkBqPvNT-Dylg-llwSJ8RNeuVfs6oexwf5u6k4plfaiEk5rOtr3n4txQmGWyoV8tvv_1vBHuu6R9pXVG40]--></g></svg>