<?xml version="1.0" encoding="UTF-8" standalone="no"?><svg xmlns="http://www.w3.org/2000/svg" xmlns:xlink="http://www.w3.org/1999/xlink" contentStyleType="text/css" height="661px" preserveAspectRatio="none" style="width:551px;height:661px;background:#FFFFFF;" version="1.1" viewBox="0 0 551 661" width="551px" zoomAndPan="magnify"><defs/><g><rect fill="#FFFFFF" height="255.9297" style="stroke:#181818;stroke-width:1.0;" width="10" x="222" y="67.4297"/><rect fill="#FFFFFF" height="255.9297" style="stroke:#181818;stroke-width:1.0;" width="10" x="222" y="352.4922"/><rect fill="#FFFFFF" height="197.6641" style="stroke:#181818;stroke-width:1.0;" width="10" x="403" y="96.5625"/><rect fill="#FFFFFF" height="197.6641" style="stroke:#181818;stroke-width:1.0;" width="10" x="403" y="381.625"/><line style="stroke:#181818;stroke-width:0.5;stroke-dasharray:5.0,5.0;" x1="28" x2="28" y1="36.2969" y2="626.4219"/><line style="stroke:#181818;stroke-width:0.5;stroke-dasharray:5.0,5.0;" x1="227" x2="227" y1="36.2969" y2="626.4219"/><line style="stroke:#181818;stroke-width:0.5;stroke-dasharray:5.0,5.0;" x1="407.5" x2="407.5" y1="36.2969" y2="626.4219"/><rect fill="#E2E2F0" height="30.2969" rx="2.5" ry="2.5" style="stroke:#181818;stroke-width:0.5;" width="46" x="5" y="5"/><text fill="#000000" font-family="sans-serif" font-size="14" lengthAdjust="spacing" textLength="32" x="12" y="24.9951">User</text><rect fill="#E2E2F0" height="30.2969" rx="2.5" ry="2.5" style="stroke:#181818;stroke-width:0.5;" width="46" x="5" y="625.4219"/><text fill="#000000" font-family="sans-serif" font-size="14" lengthAdjust="spacing" textLength="32" x="12" y="645.417">User</text><rect fill="#E2E2F0" height="30.2969" rx="2.5" ry="2.5" style="stroke:#181818;stroke-width:0.5;" width="92" x="181" y="5"/><text fill="#000000" font-family="sans-serif" font-size="14" lengthAdjust="spacing" textLength="78" x="188" y="24.9951">Middleware</text><rect fill="#E2E2F0" height="30.2969" rx="2.5" ry="2.5" style="stroke:#181818;stroke-width:0.5;" width="92" x="181" y="625.4219"/><text fill="#000000" font-family="sans-serif" font-size="14" lengthAdjust="spacing" textLength="78" x="188" y="645.417">Middleware</text><rect fill="#E2E2F0" height="30.2969" rx="2.5" ry="2.5" style="stroke:#181818;stroke-width:0.5;" width="79" x="368.5" y="5"/><text fill="#000000" font-family="sans-serif" font-size="14" lengthAdjust="spacing" textLength="65" x="375.5" y="24.9951">VoltScript</text><rect fill="#E2E2F0" height="30.2969" rx="2.5" ry="2.5" style="stroke:#181818;stroke-width:0.5;" width="79" x="368.5" y="625.4219"/><text fill="#000000" font-family="sans-serif" font-size="14" lengthAdjust="spacing" textLength="65" x="375.5" y="645.417">VoltScript</text><rect fill="#FFFFFF" height="255.9297" style="stroke:#181818;stroke-width:1.0;" width="10" x="222" y="67.4297"/><rect fill="#FFFFFF" height="255.9297" style="stroke:#181818;stroke-width:1.0;" width="10" x="222" y="352.4922"/><rect fill="#FFFFFF" height="197.6641" style="stroke:#181818;stroke-width:1.0;" width="10" x="403" y="96.5625"/><rect fill="#FFFFFF" height="197.6641" style="stroke:#181818;stroke-width:1.0;" width="10" x="403" y="381.625"/><polygon fill="#181818" points="210,63.4297,220,67.4297,210,71.4297,214,67.4297" style="stroke:#181818;stroke-width:1.0;"/><line style="stroke:#181818;stroke-width:1.0;" x1="28" x2="216" y1="67.4297" y2="67.4297"/><text fill="#000000" font-family="sans-serif" font-size="13" lengthAdjust="spacing" textLength="143" x="35" y="62.3638">Send REST service call</text><polygon fill="#181818" points="391,92.5625,401,96.5625,391,100.5625,395,96.5625" style="stroke:#181818;stroke-width:1.0;"/><line style="stroke:#181818;stroke-width:1.0;" x1="232" x2="397" y1="96.5625" y2="96.5625"/><text fill="#000000" font-family="sans-serif" font-size="13" lengthAdjust="spacing" textLength="152" x="239" y="91.4966">Run VoltScript file (.vss)</text><line style="stroke:#181818;stroke-width:1.0;stroke-dasharray:2.0,2.0;" x1="413" x2="455" y1="125.6953" y2="125.6953"/><line style="stroke:#181818;stroke-width:1.0;stroke-dasharray:2.0,2.0;" x1="455" x2="455" y1="125.6953" y2="138.6953"/><line style="stroke:#181818;stroke-width:1.0;stroke-dasharray:2.0,2.0;" x1="414" x2="455" y1="138.6953" y2="138.6953"/><polygon fill="#181818" points="424,134.6953,414,138.6953,424,142.6953,420,138.6953" style="stroke:#181818;stroke-width:1.0;"/><text fill="#000000" font-family="sans-serif" font-size="13" lengthAdjust="spacing" textLength="89" x="420" y="120.6294">Start Runtime</text><line style="stroke:#181818;stroke-width:1.0;" x1="413" x2="455" y1="167.8281" y2="167.8281"/><line style="stroke:#181818;stroke-width:1.0;" x1="455" x2="455" y1="167.8281" y2="180.8281"/><line style="stroke:#181818;stroke-width:1.0;" x1="414" x2="455" y1="180.8281" y2="180.8281"/><polygon fill="#181818" points="424,176.8281,414,180.8281,424,184.8281,420,180.8281" style="stroke:#181818;stroke-width:1.0;"/><text fill="#000000" font-family="sans-serif" font-size="13" lengthAdjust="spacing" textLength="108" x="420" y="162.7622">Run Sub Initialize</text><line style="stroke:#181818;stroke-width:1.0;" x1="413" x2="455" y1="209.9609" y2="209.9609"/><line style="stroke:#181818;stroke-width:1.0;" x1="455" x2="455" y1="209.9609" y2="222.9609"/><line style="stroke:#181818;stroke-width:1.0;" x1="414" x2="455" y1="222.9609" y2="222.9609"/><polygon fill="#181818" points="424,218.9609,414,222.9609,424,226.9609,420,222.9609" style="stroke:#181818;stroke-width:1.0;"/><text fill="#000000" font-family="sans-serif" font-size="13" lengthAdjust="spacing" textLength="92" x="420" y="204.895">Print response</text><line style="stroke:#181818;stroke-width:1.0;" x1="413" x2="455" y1="252.0938" y2="252.0938"/><line style="stroke:#181818;stroke-width:1.0;" x1="455" x2="455" y1="252.0938" y2="265.0938"/><line style="stroke:#181818;stroke-width:1.0;" x1="414" x2="455" y1="265.0938" y2="265.0938"/><polygon fill="#181818" points="424,261.0938,414,265.0938,424,269.0938,420,265.0938" style="stroke:#181818;stroke-width:1.0;"/><text fill="#000000" font-family="sans-serif" font-size="13" lengthAdjust="spacing" textLength="124" x="420" y="247.0278">Shut down Runtime</text><polygon fill="#181818" points="243,290.2266,233,294.2266,243,298.2266,239,294.2266" style="stroke:#181818;stroke-width:1.0;"/><line style="stroke:#181818;stroke-width:1.0;" x1="237" x2="407" y1="294.2266" y2="294.2266"/><text fill="#000000" font-family="sans-serif" font-size="13" lengthAdjust="spacing" textLength="92" x="249" y="289.1606">Print response</text><polygon fill="#181818" points="39,319.3594,29,323.3594,39,327.3594,35,323.3594" style="stroke:#181818;stroke-width:1.0;"/><line style="stroke:#181818;stroke-width:1.0;" x1="33" x2="226" y1="323.3594" y2="323.3594"/><text fill="#000000" font-family="sans-serif" font-size="13" lengthAdjust="spacing" textLength="96" x="45" y="318.2935">Send response</text><polygon fill="#181818" points="210,348.4922,220,352.4922,210,356.4922,214,352.4922" style="stroke:#181818;stroke-width:1.0;"/><line style="stroke:#181818;stroke-width:1.0;" x1="28" x2="216" y1="352.4922" y2="352.4922"/><text fill="#000000" font-family="sans-serif" font-size="13" lengthAdjust="spacing" textLength="175" x="35" y="347.4263">Send next REST service call</text><polygon fill="#181818" points="391,377.625,401,381.625,391,385.625,395,381.625" style="stroke:#181818;stroke-width:1.0;"/><line style="stroke:#181818;stroke-width:1.0;" x1="232" x2="397" y1="381.625" y2="381.625"/><text fill="#000000" font-family="sans-serif" font-size="13" lengthAdjust="spacing" textLength="152" x="239" y="376.5591">Run VoltScript file (.vss)</text><line style="stroke:#181818;stroke-width:1.0;stroke-dasharray:2.0,2.0;" x1="413" x2="455" y1="410.7578" y2="410.7578"/><line style="stroke:#181818;stroke-width:1.0;stroke-dasharray:2.0,2.0;" x1="455" x2="455" y1="410.7578" y2="423.7578"/><line style="stroke:#181818;stroke-width:1.0;stroke-dasharray:2.0,2.0;" x1="414" x2="455" y1="423.7578" y2="423.7578"/><polygon fill="#181818" points="424,419.7578,414,423.7578,424,427.7578,420,423.7578" style="stroke:#181818;stroke-width:1.0;"/><text fill="#000000" font-family="sans-serif" font-size="13" lengthAdjust="spacing" textLength="89" x="420" y="405.6919">Start Runtime</text><line style="stroke:#181818;stroke-width:1.0;" x1="413" x2="455" y1="452.8906" y2="452.8906"/><line style="stroke:#181818;stroke-width:1.0;" x1="455" x2="455" y1="452.8906" y2="465.8906"/><line style="stroke:#181818;stroke-width:1.0;" x1="414" x2="455" y1="465.8906" y2="465.8906"/><polygon fill="#181818" points="424,461.8906,414,465.8906,424,469.8906,420,465.8906" style="stroke:#181818;stroke-width:1.0;"/><text fill="#000000" font-family="sans-serif" font-size="13" lengthAdjust="spacing" textLength="108" x="420" y="447.8247">Run Sub Initialize</text><line style="stroke:#181818;stroke-width:1.0;" x1="413" x2="455" y1="495.0234" y2="495.0234"/><line style="stroke:#181818;stroke-width:1.0;" x1="455" x2="455" y1="495.0234" y2="508.0234"/><line style="stroke:#181818;stroke-width:1.0;" x1="414" x2="455" y1="508.0234" y2="508.0234"/><polygon fill="#181818" points="424,504.0234,414,508.0234,424,512.0234,420,508.0234" style="stroke:#181818;stroke-width:1.0;"/><text fill="#000000" font-family="sans-serif" font-size="13" lengthAdjust="spacing" textLength="92" x="420" y="489.9575">Print response</text><line style="stroke:#181818;stroke-width:1.0;" x1="413" x2="455" y1="537.1563" y2="537.1563"/><line style="stroke:#181818;stroke-width:1.0;" x1="455" x2="455" y1="537.1563" y2="550.1563"/><line style="stroke:#181818;stroke-width:1.0;" x1="414" x2="455" y1="550.1563" y2="550.1563"/><polygon fill="#181818" points="424,546.1563,414,550.1563,424,554.1563,420,550.1563" style="stroke:#181818;stroke-width:1.0;"/><text fill="#000000" font-family="sans-serif" font-size="13" lengthAdjust="spacing" textLength="124" x="420" y="532.0903">Shut down Runtime</text><polygon fill="#181818" points="243,575.2891,233,579.2891,243,583.2891,239,579.2891" style="stroke:#181818;stroke-width:1.0;"/><line style="stroke:#181818;stroke-width:1.0;" x1="237" x2="407" y1="579.2891" y2="579.2891"/><text fill="#000000" font-family="sans-serif" font-size="13" lengthAdjust="spacing" textLength="92" x="249" y="574.2231">Print response</text><polygon fill="#181818" points="39,604.4219,29,608.4219,39,612.4219,35,608.4219" style="stroke:#181818;stroke-width:1.0;"/><line style="stroke:#181818;stroke-width:1.0;" x1="33" x2="226" y1="608.4219" y2="608.4219"/><text fill="#000000" font-family="sans-serif" font-size="13" lengthAdjust="spacing" textLength="96" x="45" y="603.356">Send response</text><!--MD5=[943a4c162eab5579ea5db4103775acdc]
@startuml
User -> Middleware: Send REST service call

activate Middleware
Middleware -> VoltScript: Run VoltScript file (.vss)

activate VoltScript
VoltScript - -> VoltScript: Start Runtime
VoltScript -> VoltScript: Run Sub Initialize
VoltScript -> VoltScript: Print response
VoltScript -> VoltScript: Shut down Runtime
VoltScript -> Middleware: Print response
deactivate VoltScript

Middleware -> User: Send response
deactivate Middleware

User -> Middleware: Send next REST service call

activate Middleware
Middleware -> VoltScript: Run VoltScript file (.vss)

activate VoltScript
VoltScript - -> VoltScript: Start Runtime
VoltScript -> VoltScript: Run Sub Initialize
VoltScript -> VoltScript: Print response
VoltScript -> VoltScript: Shut down Runtime
VoltScript -> Middleware: Print response
deactivate VoltScript

Middleware -> User: Send response
deactivate Middleware
@enduml

PlantUML version 1.2022.7(Mon Aug 22 17:01:30 UTC 2022)
(GPL source distribution)
Java Runtime: OpenJDK Runtime Environment
JVM: OpenJDK 64-Bit Server VM
Default Encoding: UTF-8
Language: en
Country: null
--></g></svg>